<svg width="164" height="32" viewBox="0 0 164 32" fill="none" xmlns="http://www.w3.org/2000/svg">
<path d="M27 11.348C28.1787 11.7267 29 12.852 29 14.144V19.8587C29 21.3733 27.8707 22.6587 26.36 22.7827C25.9067 22.8187 25.4533 22.852 25 22.8787V27L21 23C19.1947 23 17.408 22.9267 15.64 22.7827C15.2551 22.7516 14.8807 22.6417 14.54 22.46M27 11.348C26.794 11.2817 26.581 11.2392 26.3653 11.2213C22.7946 10.9249 19.2054 10.9249 15.6347 11.2213C14.1267 11.3467 13 12.6307 13 14.144V19.8587C13 20.9747 13.6133 21.9653 14.54 22.46M27 11.348V8.84934C27 6.688 25.464 4.81467 23.32 4.536C20.5611 4.17839 17.782 3.99935 15 4C12.18 4 9.40267 4.18267 6.68 4.536C4.536 4.81467 3 6.688 3 8.84934V17.1507C3 19.312 4.536 21.1853 6.68 21.464C7.44933 21.564 8.22267 21.6507 9 21.7227V28L14.54 22.46" stroke="#FE876D" stroke-width="2.5" stroke-linecap="round" stroke-linejoin="round"/>
<path d="M47.7045 24.5H41.517V7.04545H47.7557C49.5114 7.04545 51.0227 7.39489 52.2898 8.09375C53.5568 8.78693 54.5313 9.78409 55.2131 11.0852C55.9006 12.3864 56.2443 13.9432 56.2443 15.7557C56.2443 17.5739 55.9006 19.1364 55.2131 20.4432C54.5313 21.75 53.5511 22.7528 52.2727 23.4517C51 24.1506 49.4773 24.5 47.7045 24.5ZM45.2074 21.3381H47.5511C48.642 21.3381 49.5597 21.1449 50.304 20.7585C51.054 20.3665 51.6165 19.7614 51.9915 18.9432C52.3722 18.1193 52.5625 17.0568 52.5625 15.7557C52.5625 14.4659 52.3722 13.4119 51.9915 12.5938C51.6165 11.7756 51.0568 11.1733 50.3125 10.7869C49.5682 10.4006 48.6506 10.2074 47.5597 10.2074H45.2074V21.3381ZM65.3557 24.7557C64.0091 24.7557 62.85 24.483 61.8784 23.9375C60.9125 23.3864 60.1682 22.608 59.6455 21.6023C59.1228 20.5909 58.8614 19.3949 58.8614 18.0142C58.8614 16.6676 59.1228 15.4858 59.6455 14.4688C60.1682 13.4517 60.904 12.6591 61.8529 12.0909C62.8074 11.5227 63.9267 11.2386 65.2108 11.2386C66.0745 11.2386 66.8784 11.3778 67.6228 11.6562C68.3728 11.929 69.0262 12.3409 69.583 12.892C70.1455 13.4432 70.583 14.1364 70.8955 14.9716C71.208 15.8011 71.3642 16.7727 71.3642 17.8864V18.8835H60.3103V16.6335H67.9466C67.9466 16.1108 67.833 15.6477 67.6057 15.2443C67.3784 14.8409 67.0631 14.5256 66.6597 14.2983C66.262 14.0653 65.7989 13.9489 65.2705 13.9489C64.7193 13.9489 64.2307 14.0767 63.8046 14.3324C63.3841 14.5824 63.0546 14.9205 62.8159 15.3466C62.5773 15.767 62.4551 16.2358 62.4495 16.7528V18.892C62.4495 19.5398 62.5688 20.0994 62.8074 20.571C63.0517 21.0426 63.3955 21.4062 63.8387 21.6619C64.2818 21.9176 64.8074 22.0455 65.4154 22.0455C65.8188 22.0455 66.1881 21.9886 66.5233 21.875C66.8586 21.7614 67.1455 21.5909 67.3841 21.3636C67.6228 21.1364 67.8046 20.858 67.9296 20.5284L71.2875 20.75C71.1171 21.5568 70.7676 22.2614 70.2392 22.8636C69.7165 23.4602 69.0404 23.9261 68.2108 24.2614C67.387 24.5909 66.4353 24.7557 65.3557 24.7557ZM86.0665 11.4091L81.4898 24.5H77.3989L72.8222 11.4091H76.6574L79.3762 20.7756H79.5126L82.2228 11.4091H86.0665Z" fill="#13102D"/>
<path d="M88.4727 24.5V7.04545H100.029V10.0881H92.163V14.2472H99.2624V17.2898H92.163V24.5H88.4727ZM107.877 24.7557C106.554 24.7557 105.409 24.4744 104.443 23.9119C103.482 23.3437 102.741 22.554 102.218 21.5426C101.696 20.5256 101.434 19.3466 101.434 18.0057C101.434 16.6534 101.696 15.4716 102.218 14.4602C102.741 13.4432 103.482 12.6534 104.443 12.0909C105.409 11.5227 106.554 11.2386 107.877 11.2386C109.201 11.2386 110.343 11.5227 111.304 12.0909C112.269 12.6534 113.014 13.4432 113.536 14.4602C114.059 15.4716 114.321 16.6534 114.321 18.0057C114.321 19.3466 114.059 20.5256 113.536 21.5426C113.014 22.554 112.269 23.3437 111.304 23.9119C110.343 24.4744 109.201 24.7557 107.877 24.7557ZM107.894 21.9432C108.497 21.9432 109 21.7727 109.403 21.4318C109.806 21.0852 110.11 20.6136 110.315 20.017C110.525 19.4205 110.63 18.7415 110.63 17.9801C110.63 17.2188 110.525 16.5398 110.315 15.9432C110.11 15.3466 109.806 14.875 109.403 14.5284C109 14.1818 108.497 14.0085 107.894 14.0085C107.286 14.0085 106.775 14.1818 106.36 14.5284C105.951 14.875 105.642 15.3466 105.431 15.9432C105.227 16.5398 105.125 17.2188 105.125 17.9801C105.125 18.7415 105.227 19.4205 105.431 20.017C105.642 20.6136 105.951 21.0852 106.36 21.4318C106.775 21.7727 107.286 21.9432 107.894 21.9432ZM117.161 24.5V11.4091H120.681V13.6932H120.818C121.056 12.8807 121.457 12.267 122.019 11.8523C122.582 11.4318 123.23 11.2216 123.963 11.2216C124.144 11.2216 124.34 11.233 124.551 11.2557C124.761 11.2784 124.945 11.3097 125.105 11.3494V14.571C124.934 14.5199 124.698 14.4744 124.397 14.4347C124.096 14.3949 123.82 14.375 123.57 14.375C123.036 14.375 122.559 14.4915 122.139 14.7244C121.724 14.9517 121.394 15.2699 121.15 15.679C120.911 16.0881 120.792 16.5597 120.792 17.0938V24.5H117.161ZM135.857 18.9261V11.4091H139.487V24.5H136.001V22.1222H135.865C135.57 22.8892 135.078 23.5057 134.391 23.9716C133.709 24.4375 132.876 24.6705 131.893 24.6705C131.018 24.6705 130.249 24.4716 129.584 24.0739C128.919 23.6761 128.399 23.1108 128.024 22.3778C127.655 21.6449 127.467 20.767 127.462 19.7443V11.4091H131.092V19.0966C131.098 19.8693 131.305 20.4801 131.715 20.929C132.124 21.3778 132.672 21.6023 133.359 21.6023C133.797 21.6023 134.206 21.5028 134.587 21.304C134.967 21.0994 135.274 20.7983 135.507 20.4006C135.746 20.0028 135.862 19.5114 135.857 18.9261ZM142.871 24.5V11.4091H146.332V13.7188H146.485C146.758 12.9517 147.212 12.3466 147.849 11.9034C148.485 11.4602 149.246 11.2386 150.133 11.2386C151.03 11.2386 151.795 11.4631 152.425 11.9119C153.056 12.3551 153.476 12.9574 153.687 13.7188H153.823C154.09 12.9688 154.573 12.3693 155.272 11.9205C155.976 11.4659 156.809 11.2386 157.769 11.2386C158.991 11.2386 159.982 11.6278 160.744 12.4062C161.511 13.179 161.894 14.2756 161.894 15.696V24.5H158.272V16.4119C158.272 15.6847 158.079 15.1392 157.692 14.7756C157.306 14.4119 156.823 14.2301 156.244 14.2301C155.584 14.2301 155.07 14.4403 154.701 14.8608C154.332 15.2756 154.147 15.8239 154.147 16.5057V24.5H150.627V16.3352C150.627 15.6932 150.442 15.1818 150.073 14.8011C149.709 14.4205 149.229 14.2301 148.633 14.2301C148.229 14.2301 147.866 14.3324 147.542 14.5369C147.224 14.7358 146.971 15.017 146.783 15.3807C146.596 15.7386 146.502 16.1591 146.502 16.642V24.5H142.871Z" fill="#FE876D"/>
</svg>
